<svg width="145" height="31" fill="none" xmlns="http://www.w3.org/2000/svg"><path d="M.69 30v-.756l3.31-.54V2.496L.69 1.992V1.2h21.672v8.244h-.972L18.617 2.1H7.961v13.5h6.084l2.124-5.22h.972v11.376h-.972l-2.124-5.292H7.961v12.24l3.312.54V30H.69Zm25.267 0v-.756l3.312-.54V2.496l-3.312-.504V1.2H36.54v.792l-3.312.504v26.208l3.312.54V30H25.957Zm20.413 0v-.756l3.312-.54V2.1h-5.94l-2.736 7.128h-1.044V1.2h23.436v8.028h-1.08l-2.7-7.128h-5.976v26.604l3.312.54V30H46.37Z" fill="#fff"/><path d="M66.897 30v-.756l3.348-1.44V3.396l-3.348-1.404V1.2h6.696l15.516 21.744V3.396L85.76 1.992V1.2h7.668v.792l-3.42 1.404V30h-.9L71.145 4.764v23.04l3.456 1.44V30h-7.704Zm30.292 0v-.756l3.312-.54V2.496l-3.312-.504V1.2h21.672v8.244h-.972L115.117 2.1h-10.656v12.96h4.68l2.124-5.22h.936v11.376h-.936l-2.16-5.292h-4.644v13.212h11.304l2.952-7.92h.936V30H97.189Zm38.437.72c-2.232 0-4.428-.636-6.588-1.908l-3.06 1.548h-.792v-9.252h.792l3.096 6.696c1.992 1.416 4.272 2.124 6.84 2.124 2.112 0 3.852-.552 5.22-1.656 1.392-1.128 2.088-2.7 2.088-4.716 0-1.464-.444-2.616-1.332-3.456-.888-.864-2.328-1.548-4.32-2.052l-5.976-1.548c-2.088-.552-3.66-1.488-4.716-2.808-1.056-1.344-1.584-2.928-1.584-4.752 0-1.656.324-3.12.972-4.392a7.007 7.007 0 0 1 2.916-2.988c1.272-.72 2.784-1.08 4.536-1.08 2.184 0 4.14.372 5.868 1.116L142.214.48h.792v7.344h-.792l-2.592-5.256c-1.8-.864-3.756-1.296-5.868-1.296-2.088 0-3.732.54-4.932 1.62-1.2 1.056-1.8 2.46-1.8 4.212 0 1.296.42 2.316 1.26 3.06.864.744 2.124 1.332 3.78 1.764l6.444 1.692c2.088.528 3.636 1.44 4.644 2.736 1.032 1.272 1.548 3.216 1.548 5.832 0 2.664-.828 4.752-2.484 6.264-1.632 1.512-3.828 2.268-6.588 2.268Z" fill="#F55656"/></svg>