<svg width="32" height="32" fill="none" xmlns="http://www.w3.org/2000/svg"><g clip-path="url(#a)" stroke="#D5C9BE" stroke-width="2" stroke-linecap="round" stroke-linejoin="round"><path d="M23.999 5.332h-16a2.667 2.667 0 0 0-2.667 2.667v16a2.667 2.667 0 0 0 2.667 2.666h16A2.667 2.667 0 0 0 26.665 24V8A2.667 2.667 0 0 0 24 5.332Zm-13.331 9.336v6.667m0-10.667v.013M16 21.335v-6.667"/><path d="M21.333 21.335v-4a2.667 2.667 0 1 0-5.333 0"/></g><defs><clipPath id="a"><path fill="#fff" d="M0 0h32v32H0z"/></clipPath></defs></svg>